# xmcd CD database file
#
# Track frame offsets:
#	150
#	40906
#	68934
#	99933
#	118207
#	135825
#	169397
#	190321
#	210477
#	244840
#
# Disc length: 3588 seconds
#
# Revision: 0
# Processed by: cddbd v1.5.1PL2 Copyright (c) Steve Scherf et al.
# Submitted via: Feurio! 1.68 - http://www.feurio.com
#
DISCID=8b0e020a
DTITLE=Chris Farlow - Live im Franzclub Berlin
DYEAR=1900
DGENRE=Blues
TTITLE0=Born in West Yorkshire
TTITLE1=Crosscut Saw
TTITLE2=Thrill Is Gone
TTITLE3=Shakey Ground
TTITLE4=Chris' Shuffle
TTITLE5=Ain't No Love
TTITLE6=Closer To You
TTITLE7=Superstitious
TTITLE8=Stormy Monday
TTITLE9=Givin't Up For Your Love
EXTD=
EXTT0=
EXTT1=
EXTT2=
EXTT3=
EXTT4=
EXTT5=
EXTT6=
EXTT7=
EXTT8=
EXTT9=
PLAYORDER=
